<?xml version="1.0" encoding="UTF-8" standalone="no"?>
<!-- Created with Inkscape (http://www.inkscape.org/) -->

<svg
   xmlns:dc="http://purl.org/dc/elements/1.1/"
   xmlns:cc="http://creativecommons.org/ns#"
   xmlns:rdf="http://www.w3.org/1999/02/22-rdf-syntax-ns#"
   xmlns:svg="http://www.w3.org/2000/svg"
   xmlns="http://www.w3.org/2000/svg"
   xmlns:xlink="http://www.w3.org/1999/xlink"
   xmlns:sodipodi="http://sodipodi.sourceforge.net/DTD/sodipodi-0.dtd"
   xmlns:inkscape="http://www.inkscape.org/namespaces/inkscape"
   width="90"
   height="380"
   viewBox="0 0 23.812501 100.54167"
   version="1.1"
   id="svg8"
   inkscape:version="0.92.2 5c3e80d, 2017-08-06"
   sodipodi:docname="SVGBlank.svg">
  <defs
     id="defs2">
    <inkscape:path-effect
       effect="powerstroke"
       id="path-effect3613"
       is_visible="true"
       offset_points="0,0.13229166"
       sort_points="true"
       interpolator_type="CubicBezierJohan"
       interpolator_beta="0.2"
       start_linecap_type="zerowidth"
       linejoin_type="extrp_arc"
       miter_limit="4"
       end_linecap_type="zerowidth" />
    <inkscape:path-effect
       effect="roughen"
       id="path-effect14339"
       is_visible="true"
       method="segments"
       max_segment_size="10"
       segments="2"
       displace_x="10;1"
       displace_y="10;1"
       global_randomize="1;1"
       handles="along"
       shift_nodes="true"
       fixed_displacement="false"
       spray_tool_friendly="false" />
    <linearGradient
       id="linearGradient9623">
      <stop
         style="stop-color:#9ac761;stop-opacity:1"
         offset="0"
         id="stop9617" />
      <stop
         style="stop-color:#c1dd9e;stop-opacity:1"
         offset="0.7037037"
         id="stop9619" />
      <stop
         style="stop-color:#9ac761;stop-opacity:1"
         offset="1"
         id="stop9621" />
    </linearGradient>
    <inkscape:perspective
       id="perspective3102"
       inkscape:persp3d-origin="360 : 106.66667 : 1"
       inkscape:vp_z="720 : 160 : 1"
       inkscape:vp_y="0 : 1000 : 0"
       inkscape:vp_x="0 : 160 : 1"
       sodipodi:type="inkscape:persp3d" />
    <linearGradient
       id="linearGradient3233">
      <stop
         id="stop3235"
         offset="0"
         style="stop-color:#f09500;stop-opacity:1" />
      <stop
         id="stop3241"
         offset="0.74074072"
         style="stop-color:#ffcf81;stop-opacity:1" />
      <stop
         id="stop3237"
         offset="1"
         style="stop-color:#f09500;stop-opacity:1" />
    </linearGradient>
    <linearGradient
       id="linearGradient3223">
      <stop
         id="stop3225"
         offset="0"
         style="stop-color:#9ac761;stop-opacity:1" />
      <stop
         id="stop3231"
         offset="0.7037037"
         style="stop-color:#c1dd9e;stop-opacity:1" />
      <stop
         id="stop3227"
         offset="1"
         style="stop-color:#9ac761;stop-opacity:1" />
    </linearGradient>
    <linearGradient
       gradientUnits="userSpaceOnUse"
       xlink:href="#linearGradient3223"
       id="linearGradient3229"
       y2="28.032305"
       x2="50.07029"
       y1="292.22757"
       x1="50.07029" />
    <linearGradient
       gradientUnits="userSpaceOnUse"
       xlink:href="#linearGradient3233"
       id="linearGradient3239"
       y2="80.156868"
       x2="215.86064"
       y1="240.11539"
       x1="217.08588" />
    <inkscape:perspective
       sodipodi:type="inkscape:persp3d"
       inkscape:vp_x="0 : 0.5 : 1"
       inkscape:vp_y="0 : 1000 : 0"
       inkscape:vp_z="1 : 0.5 : 1"
       inkscape:persp3d-origin="0.5 : 0.33333333 : 1"
       id="perspective4046" />
  </defs>
  <sodipodi:namedview
     id="base"
     pagecolor="#ffffff"
     bordercolor="#666666"
     borderopacity="1.0"
     inkscape:pageopacity="0.0"
     inkscape:pageshadow="2"
     inkscape:zoom="0.84605265"
     inkscape:cx="17.558322"
     inkscape:cy="155.39125"
     inkscape:document-units="mm"
     inkscape:current-layer="layer1"
     showgrid="false"
     units="px"
     inkscape:snap-bbox="false"
     inkscape:snap-page="false"
     inkscape:bbox-nodes="true"
     inkscape:snap-bbox-edge-midpoints="true"
     inkscape:window-width="1292"
     inkscape:window-height="845"
     inkscape:window-x="58"
     inkscape:window-y="7"
     inkscape:window-maximized="0"
     inkscape:snap-grids="false"
     inkscape:snap-to-guides="false"
     inkscape:snap-nodes="false"
     inkscape:snap-others="false"
     showguides="true"
     inkscape:guide-bbox="true">
    <sodipodi:guide
       position="12.039982,43.312662"
       orientation="0,1"
       id="guide1110"
       inkscape:locked="false" />
    <sodipodi:guide
       position="21.734513,32.679951"
       orientation="0,1"
       id="guide1112"
       inkscape:locked="false" />
  </sodipodi:namedview>
  <metadata
     id="metadata5">
    <rdf:RDF>
      <cc:Work
         rdf:about="">
        <dc:format>image/svg+xml</dc:format>
        <dc:type
           rdf:resource="http://purl.org/dc/dcmitype/StillImage" />
        <dc:title></dc:title>
      </cc:Work>
    </rdf:RDF>
  </metadata>
  <g
     inkscape:label="Layer 1"
     inkscape:groupmode="layer"
     id="layer1"
     transform="translate(0,-196.45832)"
     style="display:inline">
    <path
       style="display:inline;opacity:1;vector-effect:none;fill:#000000;fill-opacity:1;fill-rule:evenodd;stroke:#2500e1;stroke-width:1.08211231;stroke-linecap:butt;stroke-linejoin:round;stroke-miterlimit:4;stroke-dasharray:none;stroke-dashoffset:0;stroke-opacity:1;paint-order:normal"
       d="M -0.51729964,195.94101 H 24.3298 V 297.51729 H -0.51729964 Z"
       id="rect817"
       inkscape:connector-curvature="0" />
    <path
       inkscape:connector-curvature="0"
       id="path3615"
       d="M 0,196.45831 H 96.05239 V 296.99999 H 0 Z"
       style="display:none;opacity:1;vector-effect:none;fill:#000000;fill-opacity:1;fill-rule:evenodd;stroke:none;stroke-width:0.97622746;stroke-linecap:butt;stroke-linejoin:round;stroke-miterlimit:4;stroke-dasharray:none;stroke-dashoffset:0;stroke-opacity:1;paint-order:normal" />
  </g>
  <g
     inkscape:groupmode="layer"
     id="layer2"
     inkscape:label="Layer 2"
     style="display:none">
    <g
       aria-label="This is test
panel #3. 

I am about
180px wide.

I think I'm 
better than
panel #2."
       style="font-style:normal;font-variant:normal;font-weight:bold;font-stretch:normal;font-size:6.3499999px;line-height:1.25;font-family:'Trebuchet MS';-inkscape-font-specification:'Trebuchet MS, Bold';font-variant-ligatures:normal;font-variant-caps:normal;font-variant-numeric:normal;font-feature-settings:normal;text-align:center;letter-spacing:0px;word-spacing:0px;writing-mode:lr-tb;text-anchor:middle;fill:#ffffff;fill-opacity:1;stroke:none;stroke-width:0.26458332"
       id="text3638">
      <path
         d="m 10.137365,16.415536 v 3.826123 H 9.3312128 V 16.415536 H 7.8863398 V 15.699301 H 11.64735 v 0.716235 z"
         id="path3686"
         inkscape:connector-curvature="0" />
      <path
         d="m 14.273547,20.241659 v -2.046387 q 0,-0.306958 -0.192237,-0.492993 -0.192236,-0.186035 -0.502295,-0.186035 -0.192236,0 -0.387573,0.10542 -0.195337,0.102319 -0.279053,0.235645 v 2.38435 h -0.787548 v -4.557861 l 0.787548,-0.186035 v 1.634009 q 0.300757,-0.272852 0.827857,-0.272852 0.623218,0 0.967383,0.347266 0.344165,0.344165 0.344165,0.989086 v 2.046387 z"
         id="path3688"
         inkscape:connector-curvature="0" />
      <path
         d="m 16.502868,15.634189 q 0.186035,0 0.31626,0.133325 0.133325,0.130224 0.133325,0.316259 0,0.186036 -0.133325,0.319361 -0.130225,0.130224 -0.31626,0.130224 -0.186035,0 -0.31936,-0.130224 -0.130225,-0.133325 -0.130225,-0.319361 0,-0.186035 0.130225,-0.316259 0.133325,-0.133325 0.31936,-0.133325 z m -0.399976,4.60747 v -2.685107 h -0.42478 v -0.63562 h 1.209229 v 3.320727 z"
         id="path3690"
         inkscape:connector-curvature="0" />
      <path
         d="m 17.588073,20.027719 0.275952,-0.617017 q 0.347266,0.275952 0.784449,0.275952 0.452685,0 0.452685,-0.322461 0,-0.189135 -0.136426,-0.310058 -0.136425,-0.120923 -0.5302,-0.285254 -0.858862,-0.356568 -0.858862,-0.998389 0,-0.430981 0.328662,-0.669726 0.328662,-0.241846 0.840259,-0.241846 0.517798,0 0.973584,0.232544 l -0.223242,0.601514 Q 19.240685,17.475937 18.788,17.475937 q -0.406177,0 -0.406177,0.32246 0,0.127125 0.133325,0.229444 0.133326,0.102319 0.570508,0.275952 0.437183,0.170532 0.629419,0.415478 0.192236,0.244947 0.192236,0.592212 0,0.461988 -0.344165,0.728638 -0.341064,0.26355 -0.930175,0.26355 -0.331763,0 -0.533301,-0.05581 -0.198438,-0.05271 -0.511597,-0.220142 z"
         id="path3692"
         inkscape:connector-curvature="0" />
      <path
         d="m 23.051306,15.634189 q 0.186035,0 0.316259,0.133325 0.133326,0.130224 0.133326,0.316259 0,0.186036 -0.133326,0.319361 -0.130224,0.130224 -0.316259,0.130224 -0.186036,0 -0.319361,-0.130224 -0.130224,-0.133325 -0.130224,-0.319361 0,-0.186035 0.130224,-0.316259 0.133325,-0.133325 0.319361,-0.133325 z m -0.399976,4.60747 v -2.685107 h -0.42478 v -0.63562 h 1.209228 v 3.320727 z"
         id="path3694"
         inkscape:connector-curvature="0" />
      <path
         d="m 24.13651,20.027719 0.275952,-0.617017 q 0.347266,0.275952 0.784449,0.275952 0.452685,0 0.452685,-0.322461 0,-0.189135 -0.136426,-0.310058 -0.136425,-0.120923 -0.5302,-0.285254 -0.858862,-0.356568 -0.858862,-0.998389 0,-0.430981 0.328662,-0.669726 0.328662,-0.241846 0.840259,-0.241846 0.517798,0 0.973584,0.232544 l -0.223242,0.601514 q -0.254248,-0.217041 -0.706934,-0.217041 -0.406177,0 -0.406177,0.32246 0,0.127125 0.133326,0.229444 0.133325,0.102319 0.570507,0.275952 0.437183,0.170532 0.629419,0.415478 0.192237,0.244947 0.192237,0.592212 0,0.461988 -0.344165,0.728638 -0.341065,0.26355 -0.930176,0.26355 -0.331763,0 -0.533301,-0.05581 -0.198438,-0.05271 -0.511597,-0.220141 z"
         id="path3696"
         inkscape:connector-curvature="0" />
      <path
         d="m 29.10985,17.544149 h -0.384472 v -0.623217 h 0.384472 v -0.675928 l 0.775147,-0.285254 v 0.961182 h 0.911572 v 0.623217 h -0.911572 v 1.454175 q 0,0.356568 0.111621,0.505396 0.111621,0.145727 0.390674,0.145727 0.279052,0 0.520898,-0.151928 v 0.713134 q -0.269751,0.09302 -0.768945,0.09302 -0.496094,0 -0.762744,-0.279053 -0.266651,-0.282153 -0.266651,-0.799951 z"
         id="path3698"
         inkscape:connector-curvature="0" />
      <path
         d="m 34.473863,18.81849 h -2.371948 q 0.0217,0.396875 0.272852,0.617017 0.251147,0.220141 0.675927,0.220141 0.530201,0 0.806153,-0.275952 l 0.300757,0.592212 q -0.409278,0.331763 -1.221631,0.331763 -0.759644,0 -1.203028,-0.443384 -0.440283,-0.446484 -0.440283,-1.243335 0,-0.784448 0.483692,-1.27124 0.486792,-0.486792 1.16582,-0.486792 0.722436,0 1.159619,0.430981 0.437183,0.430982 0.437183,1.097608 0,0.142627 -0.06511,0.430981 z M 32.12982,18.23558 h 1.630909 q -0.08062,-0.728638 -0.806153,-0.728638 -0.663525,0 -0.824756,0.728638 z"
         id="path3700"
         inkscape:connector-curvature="0" />
      <path
         d="m 34.951354,20.027719 0.275953,-0.617017 q 0.347265,0.275952 0.784448,0.275952 0.452685,0 0.452685,-0.322461 0,-0.189135 -0.136425,-0.310058 -0.136426,-0.120923 -0.530201,-0.285254 -0.858862,-0.356568 -0.858862,-0.998389 0,-0.430981 0.328662,-0.669726 0.328662,-0.241846 0.840259,-0.241846 0.517798,0 0.973584,0.232544 l -0.223242,0.601514 q -0.254248,-0.217041 -0.706934,-0.217041 -0.406177,0 -0.406177,0.32246 0,0.127125 0.133326,0.229444 0.133325,0.102319 0.570507,0.275952 0.437183,0.170532 0.629419,0.415478 0.192237,0.244947 0.192237,0.592212 0,0.461988 -0.344165,0.728638 -0.341065,0.26355 -0.930176,0.26355 -0.331763,0 -0.533301,-0.05581 -0.198437,-0.05271 -0.511597,-0.220141 z"
         id="path3702"
         inkscape:connector-curvature="0" />
      <path
         d="M 38.014733,17.544149 H 37.63026 v -0.623217 h 0.384473 v -0.675928 l 0.775146,-0.285254 v 0.961182 h 0.911572 v 0.623217 h -0.911572 v 1.454175 q 0,0.356568 0.111621,0.505396 0.111621,0.145727 0.390674,0.145727 0.279053,0 0.520898,-0.151928 v 0.713134 q -0.269751,0.09302 -0.768945,0.09302 -0.496094,0 -0.762744,-0.279053 -0.26665,-0.282153 -0.26665,-0.799951 z"
         id="path3704"
         inkscape:connector-curvature="0" />
      <path
         d="m 11.027233,28.095443 v 1.385962 h -0.775146 v -4.622973 h 0.775146 v 0.223242 q 0.291455,-0.285254 0.716236,-0.285254 1.5875,0 1.5875,1.74873 0,0.815454 -0.440284,1.255738 -0.437182,0.440283 -1.196826,0.440283 -0.365869,0 -0.666626,-0.145728 z m 0,-2.424658 v 1.74563 q 0.21084,0.170532 0.492993,0.170532 0.536402,0 0.768946,-0.254248 0.235644,-0.257349 0.235644,-0.809253 0,-0.589111 -0.232544,-0.827856 -0.232544,-0.241846 -0.768945,-0.241846 -0.279053,0 -0.496094,0.217041 z"
         id="path3706"
         inkscape:connector-curvature="0" />
      <path
         d="m 15.857946,27.847396 q -0.10542,0.173633 -0.36897,0.285254 -0.260449,0.108521 -0.545703,0.108521 -0.536401,0 -0.843359,-0.266651 -0.306958,-0.269751 -0.306958,-0.762744 0,-0.576709 0.430981,-0.90227 0.434082,-0.325562 1.230933,-0.325562 0.136426,0 0.322461,0.04651 0,-0.586011 -0.74104,-0.586011 -0.437183,0 -0.731738,0.145728 l -0.167432,-0.601514 q 0.399975,-0.192236 0.95188,-0.192236 0.759643,0 1.11311,0.347265 0.353467,0.344165 0.353467,1.308448 v 0.710034 q 0,0.663525 0.26665,0.834057 -0.09612,0.167432 -0.21394,0.204639 -0.117822,0.04031 -0.269751,0.04031 -0.167432,0 -0.300757,-0.124024 -0.133325,-0.124023 -0.179834,-0.269751 z m -0.07441,-1.230932 q -0.198438,-0.04031 -0.297656,-0.04031 -0.917774,0 -0.917774,0.601514 0,0.446484 0.517798,0.446484 0.697632,0 0.697632,-0.697632 z"
         id="path3708"
         inkscape:connector-curvature="0" />
      <path
         d="m 19.53214,28.179159 v -1.919263 q 0,-0.42478 -0.164331,-0.620117 -0.16123,-0.195337 -0.5302,-0.195337 -0.170532,0 -0.365869,0.09612 -0.192236,0.09612 -0.300757,0.238746 v 2.399853 h -0.775146 v -3.320727 h 0.558105 l 0.142627,0.310058 q 0.31626,-0.37207 0.933276,-0.37207 0.592212,0 0.933277,0.356567 0.344165,0.353467 0.344165,0.989087 v 2.037085 z"
         id="path3710"
         inkscape:connector-curvature="0" />
      <path
         d="m 24.105504,26.75599 h -2.371948 q 0.0217,0.396875 0.272852,0.617017 0.251147,0.220141 0.675927,0.220141 0.530201,0 0.806153,-0.275952 l 0.300757,0.592212 q -0.409278,0.331763 -1.221631,0.331763 -0.759644,0 -1.203028,-0.443384 -0.440283,-0.446484 -0.440283,-1.243335 0,-0.784448 0.483692,-1.27124 0.486792,-0.486792 1.16582,-0.486792 0.722436,0 1.159619,0.430981 0.437183,0.430982 0.437183,1.097608 0,0.142627 -0.06511,0.430981 z m -2.344043,-0.58291 h 1.630909 q -0.08062,-0.728638 -0.806153,-0.728638 -0.663525,0 -0.824756,0.728638 z"
         id="path3712"
         inkscape:connector-curvature="0" />
      <path
         d="m 24.920958,23.621298 0.775147,-0.186035 v 3.733105 q 0,0.613916 0.365869,0.731738 -0.179834,0.341065 -0.613916,0.341065 -0.5271,0 -0.5271,-0.731739 z"
         id="path3714"
         inkscape:connector-curvature="0" />
      <path
         d="m 31.791858,25.357626 h -0.666626 l -0.260449,0.992187 h 0.47749 v 0.561206 h -0.626319 l -0.37207,1.330152 H 29.73927 l 0.365869,-1.330152 h -0.713135 l -0.365869,1.330152 h -0.604614 l 0.365869,-1.330152 h -0.434082 v -0.561206 h 0.586011 l 0.257348,-0.992187 H 28.709875 V 24.79642 h 0.63562 l 0.334864,-1.227832 h 0.598413 L 29.95321,24.79642 h 0.710034 l 0.334864,-1.227832 h 0.598413 L 31.27406,24.79642 h 0.517798 z m -1.255738,0 h -0.734838 l -0.26045,0.992187 h 0.728638 z"
         id="path3716"
         inkscape:connector-curvature="0" />
      <path
         d="m 32.315857,27.797787 0.403076,-0.623218 q 0.359668,0.381372 0.781348,0.381372 0.768945,0 0.768945,-0.722436 0,-0.328662 -0.223242,-0.533301 -0.223243,-0.207739 -0.601514,-0.207739 h -0.142627 v -0.663526 h 0.120923 q 0.694531,0 0.694531,-0.579809 0,-0.607715 -0.648022,-0.607715 -0.334864,0 -0.651123,0.31626 L 32.43988,24.00267 q 0.145728,-0.179834 0.455786,-0.313159 0.310059,-0.133326 0.620117,-0.133326 0.679029,0 1.0573,0.310059 0.381372,0.310059 0.381372,0.868164 0,0.663526 -0.570507,1.010791 0.722436,0.347266 0.722436,1.134815 0,0.648022 -0.430981,1.004589 -0.427881,0.356568 -1.184424,0.356568 -0.68833,0 -1.175122,-0.443384 z"
         id="path3718"
         inkscape:connector-curvature="0" />
      <path
         d="m 36.132678,27.772982 q 0,-0.232544 0.161231,-0.393774 0.164331,-0.164331 0.396875,-0.164331 0.232543,0 0.393774,0.164331 0.164331,0.16123 0.164331,0.393774 0,0.232544 -0.164331,0.396875 -0.161231,0.164331 -0.393774,0.164331 -0.232544,0 -0.396875,-0.164331 -0.161231,-0.164331 -0.161231,-0.396875 z"
         id="path3720"
         inkscape:connector-curvature="0" />
      <path
         d="M 8.6955927,44.054159 V 39.5118 h 0.8061524 v 4.542359 z"
         id="path3722"
         inkscape:connector-curvature="0" />
      <path
         d="m 14.165026,43.722396 q -0.10542,0.173633 -0.36897,0.285254 -0.260449,0.108521 -0.545703,0.108521 -0.536401,0 -0.843359,-0.266651 -0.306958,-0.269751 -0.306958,-0.762744 0,-0.576709 0.430981,-0.90227 0.434082,-0.325562 1.230933,-0.325562 0.136426,0 0.322461,0.04651 0,-0.586011 -0.74104,-0.586011 -0.437183,0 -0.731738,0.145728 l -0.167432,-0.601514 q 0.399976,-0.192236 0.95188,-0.192236 0.759643,0 1.11311,0.347265 0.353467,0.344165 0.353467,1.308447 v 0.710035 q 0,0.663525 0.26665,0.834057 -0.09612,0.167432 -0.21394,0.204639 -0.117822,0.04031 -0.269751,0.04031 -0.167432,0 -0.300757,-0.124024 -0.133325,-0.124023 -0.179834,-0.269751 z m -0.07441,-1.230932 q -0.198437,-0.04031 -0.297656,-0.04031 -0.917774,0 -0.917774,0.601514 0,0.446484 0.517798,0.446484 0.697632,0 0.697632,-0.697632 z"
         id="path3724"
         inkscape:connector-curvature="0" />
      <path
         d="m 19.547643,44.054159 v -2.080493 q 0,-0.654224 -0.58601,-0.654224 -0.173633,0 -0.334864,0.102319 -0.16123,0.10232 -0.226342,0.235645 v 2.396753 H 17.62528 v -2.201416 q 0,-0.244946 -0.151929,-0.387573 -0.151928,-0.145728 -0.42788,-0.145728 -0.145728,0 -0.319361,0.108521 -0.170532,0.10852 -0.248047,0.238745 v 2.387451 h -0.775146 v -3.320728 h 0.533301 l 0.15813,0.291455 q 0.322461,-0.353466 0.834057,-0.353466 0.660425,0 0.995288,0.359668 0.145728,-0.164331 0.406177,-0.26045 0.260449,-0.09922 0.520898,-0.09922 0.555005,0 0.861963,0.31936 0.310059,0.31626 0.310059,0.871265 v 2.192114 z"
         id="path3726"
         inkscape:connector-curvature="0" />
      <path
         d="m 24.917858,43.722396 q -0.10542,0.173633 -0.36897,0.285254 -0.260449,0.108521 -0.545703,0.108521 -0.536401,0 -0.843359,-0.266651 -0.306958,-0.269751 -0.306958,-0.762744 0,-0.576709 0.430981,-0.90227 0.434082,-0.325562 1.230933,-0.325562 0.136426,0 0.322461,0.04651 0,-0.586011 -0.74104,-0.586011 -0.437183,0 -0.731738,0.145728 l -0.167432,-0.601514 q 0.399976,-0.192236 0.95188,-0.192236 0.759643,0 1.11311,0.347265 0.353467,0.344165 0.353467,1.308447 v 0.710035 q 0,0.663525 0.26665,0.834057 -0.09612,0.167432 -0.21394,0.204639 -0.117822,0.04031 -0.269751,0.04031 -0.167432,0 -0.300757,-0.124024 -0.133325,-0.124023 -0.179834,-0.269751 z m -0.07441,-1.230932 q -0.198437,-0.04031 -0.297656,-0.04031 -0.917774,0 -0.917774,0.601514 0,0.446484 0.517798,0.446484 0.697632,0 0.697632,-0.697632 z"
         id="path3728"
         inkscape:connector-curvature="0" />
      <path
         d="m 27.004553,43.871224 -0.173633,0.244947 h -0.437182 v -4.619873 l 0.775146,-0.186036 v 1.550293 q 0.310059,-0.189135 0.675928,-0.189135 0.728638,0 1.175122,0.461987 0.446484,0.458887 0.446484,1.178223 0,0.834057 -0.449585,1.320849 -0.449585,0.483692 -1.21853,0.483692 -0.461987,0 -0.79375,-0.244947 z m 0.164331,-2.347143 v 1.733227 q 0.170532,0.201538 0.461987,0.201538 0.561206,0 0.79375,-0.26665 0.235645,-0.26665 0.235645,-0.852661 0,-1.010791 -0.967383,-1.010791 -0.344165,0 -0.523999,0.195337 z"
         id="path3730"
         inkscape:connector-curvature="0" />
      <path
         d="m 29.934606,42.386044 q 0,-0.759644 0.437183,-1.237134 0.440283,-0.47749 1.159619,-0.47749 0.756543,0 1.175122,0.458886 0.418579,0.458887 0.418579,1.255738 0,0.79375 -0.427881,1.261938 -0.42478,0.468189 -1.16582,0.468189 -0.756543,0 -1.178223,-0.47129 -0.418579,-0.474389 -0.418579,-1.258837 z m 0.806153,0 q 0,1.097607 0.790649,1.097607 0.362769,0 0.573609,-0.285254 0.21394,-0.285254 0.21394,-0.812353 0,-1.082105 -0.787549,-1.082105 -0.362768,0 -0.576709,0.285254 -0.21394,0.285254 -0.21394,0.796851 z"
         id="path3732"
         inkscape:connector-curvature="0" />
      <path
         d="m 35.887731,44.057259 v -0.279052 q -0.164331,0.139526 -0.452685,0.238745 -0.288355,0.09922 -0.5302,0.09922 -1.156519,0 -1.156519,-1.227832 v -2.154908 h 0.775147 v 2.095996 q 0,0.638721 0.573608,0.638721 0.26355,0 0.489893,-0.136426 0.226342,-0.136425 0.300756,-0.316259 v -2.282032 h 0.775147 v 3.323828 z"
         id="path3734"
         inkscape:connector-curvature="0" />
      <path
         d="m 37.624059,41.356649 h -0.384473 v -0.623218 h 0.384473 v -0.675927 l 0.775147,-0.285254 v 0.961181 h 0.911572 v 0.623218 h -0.911572 v 1.454175 q 0,0.356567 0.111621,0.505395 0.111621,0.145728 0.390674,0.145728 0.279052,0 0.520898,-0.151929 v 0.713135 q -0.269751,0.09302 -0.768945,0.09302 -0.496094,0 -0.762744,-0.279053 -0.266651,-0.282154 -0.266651,-0.799951 z"
         id="path3736"
         inkscape:connector-curvature="0" />
      <path
         d="M 7.2693232,51.991659 V 48.71744 l -0.9239746,0.555005 v -0.775147 q 0.8898682,-0.430981 1.407666,-1.066601 h 0.3224609 v 4.560962 z"
         id="path3738"
         inkscape:connector-curvature="0" />
      <path
         d="M 10.317199,49.504989 Q 10.069152,49.337557 9.9110225,49.061605 9.7528926,48.785653 9.7528926,48.509701 q 0,-0.523999 0.3689694,-0.830957 0.372071,-0.310059 0.95188,-0.310059 0.623218,0 0.973584,0.310059 0.350366,0.306958 0.350366,0.834057 0,0.275952 -0.195337,0.586011 -0.195336,0.306958 -0.42788,0.430981 0.294555,0.136426 0.542602,0.492994 0.251148,0.356567 0.251148,0.669726 0,0.644922 -0.406177,1.00459 -0.406177,0.356567 -1.103809,0.356567 -0.703833,0 -1.0883054,-0.350366 -0.3813721,-0.350366 -0.3813721,-1.010791 0,-0.341064 0.2015381,-0.669726 0.2046387,-0.328662 0.5270994,-0.517798 z m 0.830957,-0.310059 q 0.173633,-0.08062 0.306958,-0.297656 0.133325,-0.220142 0.133325,-0.396875 0,-0.204639 -0.142627,-0.325562 -0.139526,-0.120922 -0.37207,-0.120922 -0.514697,0 -0.514697,0.449585 0,0.198437 0.189136,0.406176 0.189135,0.204639 0.399975,0.285254 z m -0.16123,0.63562 q -0.592212,0.334864 -0.592212,0.861963 0,0.291455 0.182934,0.483692 0.186036,0.192236 0.480591,0.192236 0.310059,0 0.505396,-0.167432 0.198437,-0.170532 0.198437,-0.446484 0,-0.471289 -0.775146,-0.923975 z"
         id="path3740"
         inkscape:connector-curvature="0" />
      <path
         d="m 13.17904,49.582503 q 0,-0.930175 0.452686,-1.571997 0.455786,-0.641821 1.215429,-0.641821 1.5844,0 1.5844,2.313037 0,1.082105 -0.427881,1.727027 -0.427881,0.644921 -1.199927,0.644921 -0.830957,0 -1.227832,-0.595312 -0.396875,-0.595313 -0.396875,-1.875855 z m 0.837158,0.05581 q 0,0.908472 0.176734,1.336353 0.176733,0.42788 0.58601,0.42788 0.443384,0 0.629419,-0.384472 0.186035,-0.387574 0.186035,-1.37666 0,-0.920874 -0.179834,-1.271241 -0.176733,-0.350366 -0.58291,-0.350366 -0.815454,0 -0.815454,1.618506 z"
         id="path3742"
         inkscape:connector-curvature="0" />
      <path
         d="m 17.798913,51.907943 v 1.385962 h -0.775146 v -4.622974 h 0.775146 v 0.223242 q 0.291455,-0.285254 0.716235,-0.285254 1.5875,0 1.5875,1.748731 0,0.815454 -0.440283,1.255737 -0.437182,0.440283 -1.196826,0.440283 -0.365869,0 -0.666626,-0.145727 z m 0,-2.424658 v 1.74563 q 0.21084,0.170532 0.492993,0.170532 0.536402,0 0.768946,-0.254248 0.235644,-0.257349 0.235644,-0.809253 0,-0.589111 -0.232544,-0.827857 -0.232544,-0.241845 -0.768945,-0.241845 -0.279053,0 -0.496094,0.217041 z"
         id="path3744"
         inkscape:connector-curvature="0" />
      <path
         d="m 22.914879,51.991659 -0.852661,-1.082105 -0.765844,1.082105 H 20.3786 l 1.274341,-1.699121 -1.172021,-1.621607 h 0.889868 l 0.700732,1.013892 0.781348,-1.013892 h 0.883667 l -1.274341,1.621607 1.392163,1.699121 z"
         id="path3746"
         inkscape:connector-curvature="0" />
      <path
         d="M 29.463317,52.05367 H 29.181164 L 28.269592,50.013485 27.36112,52.05367 h -0.285254 l -1.252637,-3.382739 h 0.815455 l 0.666626,1.981275 0.812353,-1.981275 h 0.279053 l 0.840259,1.993677 0.719335,-1.993677 h 0.762745 z"
         id="path3748"
         inkscape:connector-curvature="0" />
      <path
         d="m 31.782555,47.384188 q 0.186035,0 0.31626,0.133325 0.133325,0.130225 0.133325,0.31626 0,0.186035 -0.133325,0.31936 -0.130225,0.130225 -0.31626,0.130225 -0.186035,0 -0.31936,-0.130225 -0.130225,-0.133325 -0.130225,-0.31936 0,-0.186035 0.130225,-0.31626 0.133325,-0.133325 0.31936,-0.133325 z m -0.399976,4.607471 v -2.685108 h -0.42478 v -0.63562 h 1.209229 v 3.320728 z"
         id="path3750"
         inkscape:connector-curvature="0" />
      <path
         d="m 35.208702,51.991659 v -0.201538 q -0.09612,0.10542 -0.325562,0.186035 -0.229443,0.07751 -0.474389,0.07751 -0.694531,0 -1.094507,-0.440283 -0.396875,-0.440283 -0.396875,-1.227832 0,-0.787549 0.455786,-1.280542 0.458887,-0.496094 1.147217,-0.496094 0.378271,0 0.68833,0.15503 v -1.330152 l 0.775146,-0.186035 v 4.743897 z m 0,-2.526978 q -0.248047,-0.198437 -0.517798,-0.198437 -0.465088,0 -0.716235,0.285254 -0.251148,0.282153 -0.251148,0.812353 0,1.035596 0.998389,1.035596 0.111621,0 0.272852,-0.06511 0.164331,-0.06821 0.21394,-0.136425 z"
         id="path3752"
         inkscape:connector-curvature="0" />
      <path
         d="m 39.720055,50.56849 h -2.371948 q 0.0217,0.396875 0.272851,0.617016 0.251148,0.220142 0.675928,0.220142 0.5302,0 0.806152,-0.275952 l 0.300757,0.592212 q -0.409277,0.331762 -1.221631,0.331762 -0.759643,0 -1.203027,-0.443383 -0.440283,-0.446485 -0.440283,-1.243335 0,-0.784449 0.483691,-1.271241 0.486792,-0.486792 1.16582,-0.486792 0.722437,0 1.15962,0.430982 0.437182,0.430981 0.437182,1.097607 0,0.142627 -0.06511,0.430982 z m -2.344043,-0.58291 h 1.630908 q -0.08062,-0.728638 -0.806152,-0.728638 -0.663526,0 -0.824756,0.728638 z"
         id="path3754"
         inkscape:connector-curvature="0" />
      <path
         d="m 40.523107,51.585482 q 0,-0.232544 0.161231,-0.393774 0.164331,-0.164332 0.396875,-0.164332 0.232544,0 0.393774,0.164332 0.164331,0.16123 0.164331,0.393774 0,0.232544 -0.164331,0.396875 -0.16123,0.164331 -0.393774,0.164331 -0.232544,0 -0.396875,-0.164331 -0.161231,-0.164331 -0.161231,-0.396875 z"
         id="path3756"
         inkscape:connector-curvature="0" />
      <path
         d="M 9.5389521,67.866658 V 63.3243 h 0.8061519 v 4.542358 z"
         id="path3758"
         inkscape:connector-curvature="0" />
      <path
         d="m 13.278259,65.169149 h -0.384473 v -0.623218 h 0.384473 v -0.675928 l 0.775146,-0.285254 v 0.961182 h 0.911572 v 0.623218 h -0.911572 v 1.454175 q 0,0.356567 0.111621,0.505395 0.111621,0.145728 0.390674,0.145728 0.279053,0 0.520898,-0.151929 v 0.713135 q -0.269751,0.09302 -0.768945,0.09302 -0.496094,0 -0.762744,-0.279053 -0.26665,-0.282153 -0.26665,-0.799951 z"
         id="path3760"
         inkscape:connector-curvature="0" />
      <path
         d="m 17.826818,67.866658 v -2.046386 q 0,-0.306958 -0.192236,-0.492993 -0.192236,-0.186036 -0.502295,-0.186036 -0.192236,0 -0.387573,0.10542 -0.195337,0.10232 -0.279053,0.235645 v 2.38435 h -0.787549 v -4.557861 l 0.787549,-0.186035 v 1.634009 q 0.300757,-0.272852 0.827856,-0.272852 0.623218,0 0.967383,0.347266 0.344165,0.344165 0.344165,0.989087 v 2.046386 z"
         id="path3762"
         inkscape:connector-curvature="0" />
      <path
         d="m 20.056139,63.259188 q 0.186036,0 0.31626,0.133325 0.133325,0.130225 0.133325,0.31626 0,0.186035 -0.133325,0.31936 -0.130224,0.130225 -0.31626,0.130225 -0.186035,0 -0.31936,-0.130225 -0.130225,-0.133325 -0.130225,-0.31936 0,-0.186035 0.130225,-0.31626 0.133325,-0.133325 0.31936,-0.133325 z m -0.399975,4.60747 v -2.685107 h -0.42478 v -0.63562 h 1.209228 v 3.320727 z"
         id="path3764"
         inkscape:connector-curvature="0" />
      <path
         d="m 23.482286,67.866658 v -1.919262 q 0,-0.42478 -0.164331,-0.620117 -0.16123,-0.195337 -0.5302,-0.195337 -0.170532,0 -0.365869,0.09612 -0.192236,0.09612 -0.300757,0.238745 v 2.399853 h -0.775146 v -3.320727 h 0.558105 l 0.142627,0.310059 q 0.31626,-0.372071 0.933277,-0.372071 0.592211,0 0.933276,0.356568 0.344165,0.353466 0.344165,0.989087 v 2.037084 z"
         id="path3766"
         inkscape:connector-curvature="0" />
      <path
         d="m 27.215392,67.866658 -0.976684,-1.503784 -0.372071,0.393775 v 1.110009 h -0.775146 v -4.557861 l 0.775146,-0.186035 v 2.69751 l 1.10691,-1.274341 h 0.933276 l -1.122412,1.258838 1.351855,2.061889 z"
         id="path3768"
         inkscape:connector-curvature="0" />
      <path
         d="M 30.548521,67.866658 V 63.3243 h 0.806153 v 4.542358 z"
         id="path3770"
         inkscape:connector-curvature="0" />
      <path
         d="m 32.886365,64.654451 h -0.586011 l -0.08682,-1.336352 h 0.768946 z"
         id="path3772"
         inkscape:connector-curvature="0" />
      <path
         d="m 37.568249,67.866658 v -2.080493 q 0,-0.654223 -0.586011,-0.654223 -0.173633,0 -0.334863,0.102319 -0.161231,0.102319 -0.226343,0.235645 v 2.396752 h -0.775146 v -2.201416 q 0,-0.244946 -0.151929,-0.387573 -0.151929,-0.145727 -0.427881,-0.145727 -0.145727,0 -0.31936,0.10852 -0.170532,0.108521 -0.248047,0.238745 v 2.387451 h -0.775147 v -3.320727 h 0.533301 l 0.15813,0.291455 q 0.322461,-0.353467 0.834058,-0.353467 0.660424,0 0.995288,0.359668 0.145727,-0.164331 0.406176,-0.260449 0.26045,-0.09922 0.520899,-0.09922 0.555005,0 0.861963,0.319361 0.310058,0.316259 0.310058,0.871264 v 2.192114 z"
         id="path3774"
         inkscape:connector-curvature="0" />
      <path
         d="M 7.8429316,75.621224 7.6692988,75.86617 H 7.2321162 v -4.619873 l 0.7751465,-0.186035 v 1.550293 q 0.3100585,-0.189136 0.6759277,-0.189136 0.7286377,0 1.175122,0.461987 0.4464846,0.458887 0.4464846,1.178223 0,0.834058 -0.4495851,1.32085 -0.449585,0.483691 -1.2185303,0.483691 -0.4619873,0 -0.79375,-0.244946 z M 8.0072627,73.27408 v 1.733228 q 0.1705322,0.201538 0.4619873,0.201538 0.561206,0 0.7937499,-0.266651 0.2356446,-0.26665 0.2356446,-0.852661 0,-1.010791 -0.9673828,-1.010791 -0.3441651,0 -0.523999,0.195337 z"
         id="path3776"
         inkscape:connector-curvature="0" />
      <path
         d="m 13.954186,74.380989 h -2.371948 q 0.0217,0.396875 0.272852,0.617017 0.251147,0.220142 0.675927,0.220142 0.530201,0 0.806153,-0.275953 l 0.300757,0.592212 q -0.409278,0.331763 -1.221631,0.331763 -0.759644,0 -1.203028,-0.443384 -0.440283,-0.446484 -0.440283,-1.243335 0,-0.784448 0.483692,-1.27124 0.486792,-0.486792 1.16582,-0.486792 0.722436,0 1.159619,0.430982 0.437183,0.430981 0.437183,1.097607 0,0.142627 -0.06511,0.430981 z m -2.344043,-0.58291 h 1.630909 q -0.08062,-0.728637 -0.806153,-0.728637 -0.663525,0 -0.824756,0.728637 z"
         id="path3778"
         inkscape:connector-curvature="0" />
      <path
         d="m 14.754138,73.106649 h -0.384473 v -0.623218 h 0.384473 v -0.675928 l 0.775146,-0.285254 v 0.961182 h 0.911572 v 0.623218 h -0.911572 v 1.454174 q 0,0.356568 0.111621,0.505396 0.111621,0.145727 0.390674,0.145727 0.279053,0 0.520898,-0.151928 v 0.713134 q -0.269751,0.09302 -0.768945,0.09302 -0.496094,0 -0.762744,-0.279053 -0.26665,-0.282153 -0.26665,-0.799951 z"
         id="path3780"
         inkscape:connector-curvature="0" />
      <path
         d="m 17.271813,73.106649 h -0.384472 v -0.623218 h 0.384472 v -0.675928 l 0.775147,-0.285254 v 0.961182 h 0.911572 v 0.623218 H 18.04696 v 1.454174 q 0,0.356568 0.111621,0.505396 0.111621,0.145727 0.390674,0.145727 0.279053,0 0.520898,-0.151928 v 0.713134 q -0.269751,0.09302 -0.768945,0.09302 -0.496094,0 -0.762744,-0.279053 -0.266651,-0.282153 -0.266651,-0.799951 z"
         id="path3782"
         inkscape:connector-curvature="0" />
      <path
         d="m 22.635827,74.380989 h -2.371949 q 0.02171,0.396875 0.272852,0.617017 0.251148,0.220142 0.675928,0.220142 0.5302,0 0.806152,-0.275953 l 0.300757,0.592212 q -0.409277,0.331763 -1.221631,0.331763 -0.759643,0 -1.203027,-0.443384 -0.440283,-0.446484 -0.440283,-1.243335 0,-0.784448 0.483691,-1.27124 0.486792,-0.486792 1.16582,-0.486792 0.722437,0 1.159619,0.430982 0.437183,0.430981 0.437183,1.097607 0,0.142627 -0.06511,0.430981 z m -2.344043,-0.58291 h 1.630908 q -0.08062,-0.728637 -0.806152,-0.728637 -0.663526,0 -0.824756,0.728637 z"
         id="path3784"
         inkscape:connector-curvature="0" />
      <path
         d="m 25.237219,73.205867 q -0.207739,-0.136425 -0.455786,-0.136425 -0.269751,0 -0.480591,0.244946 -0.207739,0.244946 -0.207739,0.598413 v 1.891357 h -0.775147 v -3.320727 h 0.775147 v 0.303857 q 0.325561,-0.365869 0.865063,-0.365869 0.396875,0 0.607715,0.120923 z"
         id="path3786"
         inkscape:connector-curvature="0" />
      <path
         d="M 28.061853,73.106649 H 27.67738 v -0.623218 h 0.384473 v -0.675928 l 0.775146,-0.285254 v 0.961182 h 0.911572 v 0.623218 h -0.911572 v 1.454174 q 0,0.356568 0.111621,0.505396 0.111621,0.145727 0.390674,0.145727 0.279053,0 0.520898,-0.151928 v 0.713134 q -0.269751,0.09302 -0.768945,0.09302 -0.496094,0 -0.762744,-0.279053 -0.26665,-0.282153 -0.26665,-0.799951 z"
         id="path3788"
         inkscape:connector-curvature="0" />
      <path
         d="m 32.610412,75.804158 v -2.046386 q 0,-0.306958 -0.192237,-0.492994 -0.192236,-0.186035 -0.502295,-0.186035 -0.192236,0 -0.387573,0.10542 -0.195337,0.10232 -0.279053,0.235645 v 2.38435 h -0.787548 v -4.557861 l 0.787548,-0.186035 v 1.634009 q 0.300757,-0.272852 0.827857,-0.272852 0.623218,0 0.967383,0.347266 0.344165,0.344165 0.344165,0.989087 v 2.046386 z"
         id="path3790"
         inkscape:connector-curvature="0" />
      <path
         d="m 36.079968,75.472396 q -0.10542,0.173632 -0.36897,0.285254 -0.260449,0.10852 -0.545703,0.10852 -0.536401,0 -0.843359,-0.26665 -0.306958,-0.269751 -0.306958,-0.762744 0,-0.576709 0.430981,-0.902271 0.434082,-0.325561 1.230933,-0.325561 0.136426,0 0.322461,0.04651 0,-0.58601 -0.74104,-0.58601 -0.437183,0 -0.731738,0.145727 l -0.167432,-0.601514 q 0.399976,-0.192236 0.95188,-0.192236 0.759643,0 1.11311,0.347266 0.353467,0.344165 0.353467,1.308447 v 0.710034 q 0,0.663526 0.26665,0.834058 -0.09612,0.167431 -0.21394,0.204638 -0.117822,0.04031 -0.269751,0.04031 -0.167432,0 -0.300757,-0.124023 -0.133325,-0.124024 -0.179834,-0.269751 z m -0.07441,-1.230933 q -0.198437,-0.04031 -0.297656,-0.04031 -0.917774,0 -0.917774,0.601514 0,0.446484 0.517798,0.446484 0.697632,0 0.697632,-0.697631 z"
         id="path3792"
         inkscape:connector-curvature="0" />
      <path
         d="m 39.754162,75.804158 v -1.919262 q 0,-0.424781 -0.164331,-0.620118 -0.16123,-0.195336 -0.5302,-0.195336 -0.170532,0 -0.365869,0.09612 -0.192237,0.09612 -0.300757,0.238745 v 2.399853 h -0.775147 v -3.320727 h 0.558106 l 0.142627,0.310058 q 0.31626,-0.37207 0.933276,-0.37207 0.592212,0 0.933276,0.356568 0.344166,0.353466 0.344166,0.989086 v 2.037085 z"
         id="path3794"
         inkscape:connector-curvature="0" />
      <path
         d="m 11.027233,83.657942 v 1.385962 h -0.775146 v -4.622973 h 0.775146 v 0.223242 q 0.291455,-0.285254 0.716236,-0.285254 1.5875,0 1.5875,1.74873 0,0.815455 -0.440284,1.255738 -0.437182,0.440283 -1.196826,0.440283 -0.365869,0 -0.666626,-0.145728 z m 0,-2.424658 v 1.74563 q 0.21084,0.170532 0.492993,0.170532 0.536402,0 0.768946,-0.254248 0.235644,-0.257348 0.235644,-0.809253 0,-0.589111 -0.232544,-0.827856 -0.232544,-0.241846 -0.768945,-0.241846 -0.279053,0 -0.496094,0.217041 z"
         id="path3796"
         inkscape:connector-curvature="0" />
      <path
         d="m 15.857946,83.409896 q -0.10542,0.173632 -0.36897,0.285253 -0.260449,0.108521 -0.545703,0.108521 -0.536401,0 -0.843359,-0.26665 -0.306958,-0.269751 -0.306958,-0.762745 0,-0.576709 0.430981,-0.90227 0.434082,-0.325562 1.230933,-0.325562 0.136426,0 0.322461,0.04651 0,-0.586011 -0.74104,-0.586011 -0.437183,0 -0.731738,0.145728 l -0.167432,-0.601514 q 0.399975,-0.192236 0.95188,-0.192236 0.759643,0 1.11311,0.347266 0.353467,0.344165 0.353467,1.308447 v 0.710034 q 0,0.663525 0.26665,0.834058 -0.09612,0.167431 -0.21394,0.204638 -0.117822,0.04031 -0.269751,0.04031 -0.167432,0 -0.300757,-0.124024 -0.133325,-0.124023 -0.179834,-0.26975 z m -0.07441,-1.230933 q -0.198438,-0.04031 -0.297656,-0.04031 -0.917774,0 -0.917774,0.601514 0,0.446484 0.517798,0.446484 0.697632,0 0.697632,-0.697631 z"
         id="path3798"
         inkscape:connector-curvature="0" />
      <path
         d="m 19.53214,83.741658 v -1.919262 q 0,-0.424781 -0.164331,-0.620118 -0.16123,-0.195337 -0.5302,-0.195337 -0.170532,0 -0.365869,0.09612 -0.192236,0.09612 -0.300757,0.238745 v 2.399853 h -0.775146 v -3.320727 h 0.558105 l 0.142627,0.310058 q 0.31626,-0.37207 0.933276,-0.37207 0.592212,0 0.933277,0.356567 0.344165,0.353467 0.344165,0.989087 v 2.037085 z"
         id="path3800"
         inkscape:connector-curvature="0" />
      <path
         d="m 24.105504,82.318489 h -2.371948 q 0.0217,0.396875 0.272852,0.617017 0.251147,0.220141 0.675927,0.220141 0.530201,0 0.806153,-0.275952 l 0.300757,0.592212 q -0.409278,0.331763 -1.221631,0.331763 -0.759644,0 -1.203028,-0.443384 -0.440283,-0.446484 -0.440283,-1.243335 0,-0.784448 0.483692,-1.27124 0.486792,-0.486792 1.16582,-0.486792 0.722436,0 1.159619,0.430981 0.437183,0.430982 0.437183,1.097608 0,0.142627 -0.06511,0.430981 z m -2.344043,-0.58291 h 1.630909 q -0.08062,-0.728638 -0.806153,-0.728638 -0.663525,0 -0.824756,0.728638 z"
         id="path3802"
         inkscape:connector-curvature="0" />
      <path
         d="m 24.920958,79.183797 0.775147,-0.186035 v 3.733105 q 0,0.613916 0.365869,0.731738 -0.179834,0.341065 -0.613916,0.341065 -0.5271,0 -0.5271,-0.731738 z"
         id="path3804"
         inkscape:connector-curvature="0" />
      <path
         d="m 31.791858,80.920125 h -0.666626 l -0.260449,0.992188 h 0.47749 v 0.561206 h -0.626319 l -0.37207,1.330151 H 29.73927 l 0.365869,-1.330151 h -0.713135 l -0.365869,1.330151 h -0.604614 l 0.365869,-1.330151 h -0.434082 v -0.561206 h 0.586011 l 0.257348,-0.992188 h -0.486792 v -0.561206 h 0.63562 l 0.334864,-1.227832 h 0.598413 l -0.325562,1.227832 h 0.710034 l 0.334864,-1.227832 h 0.598413 l -0.322461,1.227832 h 0.517798 z m -1.255738,0 h -0.734838 l -0.26045,0.992188 h 0.728638 z"
         id="path3806"
         inkscape:connector-curvature="0" />
      <path
         d="m 32.353064,83.741658 v -0.235644 l 1.438672,-2.1177 q 0.430981,-0.635621 0.430981,-1.069703 0,-0.514697 -0.617017,-0.514697 -0.471289,0 -0.759643,0.499194 l -0.542603,-0.42788 q 0.161231,-0.325562 0.505396,-0.539502 0.347266,-0.217041 0.765845,-0.217041 0.697631,0 1.091406,0.31936 0.393774,0.31626 0.393774,0.880566 0,0.517798 -0.505395,1.289844 l -0.930176,1.416968 h 1.705322 v 0.716235 z"
         id="path3808"
         inkscape:connector-curvature="0" />
      <path
         d="m 36.132678,83.335481 q 0,-0.232543 0.161231,-0.393774 0.164331,-0.164331 0.396875,-0.164331 0.232543,0 0.393774,0.164331 0.164331,0.161231 0.164331,0.393774 0,0.232544 -0.164331,0.396875 -0.161231,0.164332 -0.393774,0.164332 -0.232544,0 -0.396875,-0.164332 -0.161231,-0.164331 -0.161231,-0.396875 z"
         id="path3810"
         inkscape:connector-curvature="0" />
    </g>
  </g>
</svg>
