<?xml version="1.0" encoding="UTF-8" standalone="no"?>
<!-- Created with Inkscape (http://www.inkscape.org/) -->

<svg
   xmlns:dc="http://purl.org/dc/elements/1.1/"
   xmlns:cc="http://creativecommons.org/ns#"
   xmlns:rdf="http://www.w3.org/1999/02/22-rdf-syntax-ns#"
   xmlns:svg="http://www.w3.org/2000/svg"
   xmlns="http://www.w3.org/2000/svg"
   xmlns:xlink="http://www.w3.org/1999/xlink"
   xmlns:sodipodi="http://sodipodi.sourceforge.net/DTD/sodipodi-0.dtd"
   xmlns:inkscape="http://www.inkscape.org/namespaces/inkscape"
   width="360"
   height="380"
   viewBox="0 0 95.250004 100.54167"
   version="1.1"
   id="svg8"
   inkscape:version="0.92.2 5c3e80d, 2017-08-06"
   sodipodi:docname="TestBlank2.svg">
  <defs
     id="defs2">
    <inkscape:path-effect
       effect="powerstroke"
       id="path-effect3613"
       is_visible="true"
       offset_points="0,0.13229166"
       sort_points="true"
       interpolator_type="CubicBezierJohan"
       interpolator_beta="0.2"
       start_linecap_type="zerowidth"
       linejoin_type="extrp_arc"
       miter_limit="4"
       end_linecap_type="zerowidth" />
    <inkscape:path-effect
       effect="roughen"
       id="path-effect14339"
       is_visible="true"
       method="segments"
       max_segment_size="10"
       segments="2"
       displace_x="10;1"
       displace_y="10;1"
       global_randomize="1;1"
       handles="along"
       shift_nodes="true"
       fixed_displacement="false"
       spray_tool_friendly="false" />
    <linearGradient
       id="linearGradient9623">
      <stop
         style="stop-color:#9ac761;stop-opacity:1"
         offset="0"
         id="stop9617" />
      <stop
         style="stop-color:#c1dd9e;stop-opacity:1"
         offset="0.7037037"
         id="stop9619" />
      <stop
         style="stop-color:#9ac761;stop-opacity:1"
         offset="1"
         id="stop9621" />
    </linearGradient>
    <inkscape:perspective
       id="perspective3102"
       inkscape:persp3d-origin="360 : 106.66667 : 1"
       inkscape:vp_z="720 : 160 : 1"
       inkscape:vp_y="0 : 1000 : 0"
       inkscape:vp_x="0 : 160 : 1"
       sodipodi:type="inkscape:persp3d" />
    <linearGradient
       id="linearGradient3233">
      <stop
         id="stop3235"
         offset="0"
         style="stop-color:#f09500;stop-opacity:1" />
      <stop
         id="stop3241"
         offset="0.74074072"
         style="stop-color:#ffcf81;stop-opacity:1" />
      <stop
         id="stop3237"
         offset="1"
         style="stop-color:#f09500;stop-opacity:1" />
    </linearGradient>
    <linearGradient
       id="linearGradient3223">
      <stop
         id="stop3225"
         offset="0"
         style="stop-color:#9ac761;stop-opacity:1" />
      <stop
         id="stop3231"
         offset="0.7037037"
         style="stop-color:#c1dd9e;stop-opacity:1" />
      <stop
         id="stop3227"
         offset="1"
         style="stop-color:#9ac761;stop-opacity:1" />
    </linearGradient>
    <linearGradient
       gradientUnits="userSpaceOnUse"
       xlink:href="#linearGradient3223"
       id="linearGradient3229"
       y2="28.032305"
       x2="50.07029"
       y1="292.22757"
       x1="50.07029" />
    <linearGradient
       gradientUnits="userSpaceOnUse"
       xlink:href="#linearGradient3233"
       id="linearGradient3239"
       y2="80.156868"
       x2="215.86064"
       y1="240.11539"
       x1="217.08588" />
    <inkscape:perspective
       sodipodi:type="inkscape:persp3d"
       inkscape:vp_x="0 : 0.5 : 1"
       inkscape:vp_y="0 : 1000 : 0"
       inkscape:vp_z="1 : 0.5 : 1"
       inkscape:persp3d-origin="0.5 : 0.33333333 : 1"
       id="perspective4046" />
  </defs>
  <sodipodi:namedview
     id="base"
     pagecolor="#ffffff"
     bordercolor="#666666"
     borderopacity="1.0"
     inkscape:pageopacity="0.0"
     inkscape:pageshadow="2"
     inkscape:zoom="0.84605265"
     inkscape:cx="17.558322"
     inkscape:cy="155.39125"
     inkscape:document-units="mm"
     inkscape:current-layer="layer1"
     showgrid="false"
     units="px"
     inkscape:snap-bbox="false"
     inkscape:snap-page="false"
     inkscape:bbox-nodes="true"
     inkscape:snap-bbox-edge-midpoints="true"
     inkscape:window-width="1292"
     inkscape:window-height="845"
     inkscape:window-x="58"
     inkscape:window-y="7"
     inkscape:window-maximized="0"
     inkscape:snap-grids="false"
     inkscape:snap-to-guides="false"
     inkscape:snap-nodes="false"
     inkscape:snap-others="false"
     showguides="true"
     inkscape:guide-bbox="true">
    <sodipodi:guide
       position="12.039982,43.312662"
       orientation="0,1"
       id="guide1110"
       inkscape:locked="false" />
    <sodipodi:guide
       position="21.734513,32.679951"
       orientation="0,1"
       id="guide1112"
       inkscape:locked="false" />
  </sodipodi:namedview>
  <metadata
     id="metadata5">
    <rdf:RDF>
      <cc:Work
         rdf:about="">
        <dc:format>image/svg+xml</dc:format>
        <dc:type
           rdf:resource="http://purl.org/dc/dcmitype/StillImage" />
        <dc:title></dc:title>
      </cc:Work>
    </rdf:RDF>
  </metadata>
  <g
     inkscape:label="Layer 1"
     inkscape:groupmode="layer"
     id="layer1"
     transform="translate(0,-196.45832)"
     style="display:inline">
    <path
       style="display:inline;opacity:1;vector-effect:none;fill:#000000;fill-opacity:1;fill-rule:evenodd;stroke:#007004;stroke-width:2.11666667;stroke-linecap:butt;stroke-linejoin:round;stroke-miterlimit:4;stroke-dasharray:none;stroke-dashoffset:0;stroke-opacity:1;paint-order:normal"
       d="M 0,196.45831 H 96.05239 V 296.99999 H 0 Z"
       id="rect817"
       inkscape:connector-curvature="0" />
    <path
       inkscape:connector-curvature="0"
       id="path3615"
       d="M 0,196.45831 H 96.05239 V 296.99999 H 0 Z"
       style="display:none;opacity:1;vector-effect:none;fill:#000000;fill-opacity:1;fill-rule:evenodd;stroke:none;stroke-width:0.97622746;stroke-linecap:butt;stroke-linejoin:round;stroke-miterlimit:4;stroke-dasharray:none;stroke-dashoffset:0;stroke-opacity:1;paint-order:normal" />
  </g>
  <g
     inkscape:groupmode="layer"
     id="layer2"
     inkscape:label="Layer 2">
    <g
       aria-label="This is test panel #2
It is 360px wide."
       style="font-style:normal;font-variant:normal;font-weight:bold;font-stretch:normal;font-size:7.05555534px;line-height:1.25;font-family:'Trebuchet MS';-inkscape-font-specification:'Trebuchet MS, Bold';font-variant-ligatures:normal;font-variant-caps:normal;font-variant-numeric:normal;font-feature-settings:normal;text-align:center;letter-spacing:0px;word-spacing:0px;writing-mode:lr-tb;text-anchor:middle;fill:#ffffff;fill-opacity:1;stroke:none;stroke-width:0.26458332"
       id="text3542">
      <path
         d="m 17.073895,44.021431 v 4.251247 H 16.17817 v -4.251247 h -1.605415 v -0.795817 h 4.178901 v 0.795817 z"
         id="path3548"
         inkscape:connector-curvature="0" />
      <path
         d="m 21.669652,48.272678 v -2.273763 q 0,-0.341064 -0.213596,-0.54777 -0.213596,-0.206705 -0.558105,-0.206705 -0.213596,0 -0.430637,0.117133 -0.217041,0.113688 -0.310059,0.261827 v 2.649278 h -0.875054 v -5.06429 l 0.875054,-0.206706 v 1.815566 q 0.334174,-0.303169 0.919841,-0.303169 0.692464,0 1.074869,0.385851 0.382406,0.382406 0.382406,1.098985 v 2.273763 z"
         id="path3550"
         inkscape:connector-curvature="0" />
      <path
         d="m 24.146676,43.153267 q 0.206705,0 0.351399,0.148139 0.14814,0.144694 0.14814,0.351399 0,0.206706 -0.14814,0.354845 -0.144694,0.144694 -0.351399,0.144694 -0.206706,0 -0.354845,-0.144694 -0.144694,-0.148139 -0.144694,-0.354845 0,-0.206705 0.144694,-0.351399 0.148139,-0.148139 0.354845,-0.148139 z m -0.444418,5.119411 V 45.289226 H 23.23028 v -0.706245 h 1.343588 v 3.689697 z"
         id="path3552"
         inkscape:connector-curvature="0" />
      <path
         d="m 25.352459,48.034967 0.306614,-0.685574 q 0.38585,0.306613 0.871609,0.306613 0.502984,0 0.502984,-0.35829 0,-0.21015 -0.151584,-0.344509 -0.151585,-0.134359 -0.589112,-0.316949 -0.954291,-0.396186 -0.954291,-1.109321 0,-0.478868 0.36518,-0.74414 0.36518,-0.268718 0.933621,-0.268718 0.575331,0 1.08176,0.258382 l -0.248047,0.668349 q -0.282498,-0.241157 -0.785482,-0.241157 -0.451307,0 -0.451307,0.35829 0,0.141249 0.148139,0.254937 0.148139,0.113688 0.633897,0.306614 0.485759,0.18948 0.699355,0.461643 0.213596,0.272162 0.213596,0.658013 0,0.513319 -0.382406,0.809597 -0.378961,0.292833 -1.033529,0.292833 -0.368625,0 -0.592556,-0.06201 -0.220486,-0.05857 -0.568441,-0.244603 z"
         id="path3554"
         inkscape:connector-curvature="0" />
      <path
         d="m 31.422718,43.153267 q 0.206705,0 0.351399,0.148139 0.14814,0.144694 0.14814,0.351399 0,0.206706 -0.14814,0.354845 -0.144694,0.144694 -0.351399,0.144694 -0.206706,0 -0.354845,-0.144694 -0.144694,-0.148139 -0.144694,-0.354845 0,-0.206705 0.144694,-0.351399 0.148139,-0.148139 0.354845,-0.148139 z M 30.9783,48.272678 v -2.983452 h -0.471978 v -0.706245 h 1.343588 v 3.689697 z"
         id="path3556"
         inkscape:connector-curvature="0" />
      <path
         d="m 32.628501,48.034967 0.306614,-0.685574 q 0.38585,0.306613 0.871609,0.306613 0.502984,0 0.502984,-0.35829 0,-0.21015 -0.151584,-0.344509 -0.151585,-0.134359 -0.589112,-0.316949 -0.954291,-0.396186 -0.954291,-1.109321 0,-0.478868 0.36518,-0.74414 0.36518,-0.268718 0.933621,-0.268718 0.575331,0 1.08176,0.258382 l -0.248047,0.668349 q -0.282498,-0.241157 -0.785482,-0.241157 -0.451307,0 -0.451307,0.35829 0,0.141249 0.148139,0.254937 0.148139,0.113688 0.633897,0.306614 0.485759,0.18948 0.699355,0.461643 0.213596,0.272162 0.213596,0.658013 0,0.513319 -0.382406,0.809597 -0.378961,0.292833 -1.033529,0.292833 -0.368625,0 -0.592556,-0.06201 -0.220486,-0.05857 -0.568441,-0.244603 z"
         id="path3558"
         inkscape:connector-curvature="0" />
      <path
         d="m 38.154434,45.275445 h -0.427192 v -0.692464 h 0.427192 V 43.83195 l 0.861274,-0.316948 v 1.067979 h 1.012858 v 0.692464 h -1.012858 v 1.61575 q 0,0.396186 0.124023,0.561551 0.124023,0.161919 0.434082,0.161919 0.310059,0 0.578776,-0.16881 v 0.792372 q -0.299723,0.103353 -0.854384,0.103353 -0.551215,0 -0.847493,-0.310058 -0.296278,-0.313504 -0.296278,-0.888835 z"
         id="path3560"
         inkscape:connector-curvature="0" />
      <path
         d="M 44.114448,46.69138 H 41.47895 q 0.02412,0.440972 0.303168,0.685574 0.279053,0.244601 0.751031,0.244601 0.589111,0 0.895725,-0.306613 l 0.334174,0.658013 q -0.454752,0.368625 -1.357367,0.368625 -0.844049,0 -1.336697,-0.492648 -0.489204,-0.496094 -0.489204,-1.381484 0,-0.871609 0.537435,-1.412489 0.54088,-0.54088 1.295356,-0.54088 0.802707,0 1.288466,0.478869 0.485758,0.478868 0.485758,1.219563 0,0.158475 -0.07235,0.478869 z m -2.604492,-0.647678 h 1.81212 q -0.08957,-0.809598 -0.895725,-0.809598 -0.73725,0 -0.916395,0.809598 z"
         id="path3562"
         inkscape:connector-curvature="0" />
      <path
         d="m 44.644994,48.034967 0.306614,-0.685574 q 0.38585,0.306613 0.871609,0.306613 0.502984,0 0.502984,-0.35829 0,-0.21015 -0.151585,-0.344509 -0.151584,-0.134359 -0.589111,-0.316949 -0.954291,-0.396186 -0.954291,-1.109321 0,-0.478868 0.36518,-0.74414 0.36518,-0.268718 0.933621,-0.268718 0.575331,0 1.08176,0.258382 l -0.248047,0.668349 q -0.282498,-0.241157 -0.785482,-0.241157 -0.451308,0 -0.451308,0.35829 0,0.141249 0.14814,0.254937 0.148139,0.113688 0.633897,0.306614 0.485759,0.18948 0.699354,0.461643 0.213596,0.272162 0.213596,0.658013 0,0.513319 -0.382405,0.809597 -0.378961,0.292833 -1.033529,0.292833 -0.368625,0 -0.592556,-0.06201 -0.220486,-0.05857 -0.568441,-0.244603 z"
         id="path3564"
         inkscape:connector-curvature="0" />
      <path
         d="m 48.048746,45.275445 h -0.427192 v -0.692464 h 0.427192 V 43.83195 l 0.861273,-0.316948 v 1.067979 h 1.012858 v 0.692464 h -1.012858 v 1.61575 q 0,0.396186 0.124024,0.561551 0.124023,0.161919 0.434082,0.161919 0.310058,0 0.578776,-0.16881 v 0.792372 q -0.299723,0.103353 -0.854384,0.103353 -0.551215,0 -0.847493,-0.310058 -0.296278,-0.313504 -0.296278,-0.888835 z"
         id="path3566"
         inkscape:connector-curvature="0" />
      <path
         d="m 53.629802,48.179661 v 1.539957 h -0.861274 v -5.136637 h 0.861274 v 0.248047 q 0.323839,-0.316949 0.795817,-0.316949 1.763888,0 1.763888,1.943034 0,0.90606 -0.489203,1.395264 -0.485759,0.489203 -1.329807,0.489203 -0.406521,0 -0.740695,-0.161919 z m 0,-2.694065 v 1.939589 q 0.234266,0.18948 0.54777,0.18948 0.596001,0 0.854383,-0.282498 0.261828,-0.285943 0.261828,-0.89917 0,-0.654568 -0.258383,-0.91984 -0.258382,-0.268717 -0.854383,-0.268717 -0.310059,0 -0.551215,0.241156 z"
         id="path3568"
         inkscape:connector-curvature="0" />
      <path
         d="m 58.997262,47.904053 q -0.117133,0.192926 -0.409966,0.316949 -0.289388,0.120578 -0.606337,0.120578 -0.596001,0 -0.937066,-0.296278 -0.341064,-0.299723 -0.341064,-0.847493 0,-0.640788 0.478868,-1.002523 0.482313,-0.361735 1.367703,-0.361735 0.151584,0 0.35829,0.05168 0,-0.651123 -0.823378,-0.651123 -0.485758,0 -0.813042,0.16192 l -0.186036,-0.668349 q 0.444418,-0.213596 1.057645,-0.213596 0.844048,0 1.236789,0.385851 0.392741,0.382406 0.392741,1.45383 v 0.788927 q 0,0.737251 0.296278,0.926731 -0.106798,0.186035 -0.237712,0.227376 -0.130913,0.04479 -0.299723,0.04479 -0.186035,0 -0.334174,-0.137804 -0.148139,-0.137803 -0.199816,-0.299723 z M 58.91458,46.53635 q -0.220486,-0.04479 -0.330729,-0.04479 -1.019748,0 -1.019748,0.668349 0,0.496093 0.575331,0.496093 0.775146,0 0.775146,-0.775146 z"
         id="path3570"
         inkscape:connector-curvature="0" />
      <path
         d="m 63.079699,48.272678 v -2.132514 q 0,-0.471978 -0.18259,-0.689019 -0.179145,-0.217041 -0.589111,-0.217041 -0.18948,0 -0.406521,0.106798 -0.213596,0.106798 -0.334175,0.265273 v 2.666503 h -0.861273 v -3.689697 h 0.620117 l 0.158474,0.34451 q 0.3514,-0.413412 1.036974,-0.413412 0.658013,0 1.036974,0.396186 0.382405,0.392741 0.382405,1.098986 v 2.263427 z"
         id="path3572"
         inkscape:connector-curvature="0" />
      <path
         d="m 68.161214,46.69138 h -2.635498 q 0.02412,0.440972 0.303169,0.685574 0.279052,0.244601 0.75103,0.244601 0.589112,0 0.895725,-0.306613 l 0.334175,0.658013 q -0.454753,0.368625 -1.357368,0.368625 -0.844048,0 -1.336697,-0.492648 -0.489204,-0.496094 -0.489204,-1.381484 0,-0.871609 0.537435,-1.412489 0.54088,-0.54088 1.295356,-0.54088 0.802707,0 1.288466,0.478869 0.485758,0.478868 0.485758,1.219563 0,0.158475 -0.07235,0.478869 z m -2.604492,-0.647678 h 1.81212 q -0.08957,-0.809598 -0.895725,-0.809598 -0.73725,0 -0.916395,0.809598 z"
         id="path3574"
         inkscape:connector-curvature="0" />
      <path
         d="m 69.067276,43.208388 0.861274,-0.206706 v 4.147895 q 0,0.682129 0.406521,0.813043 -0.199816,0.37896 -0.682129,0.37896 -0.585666,0 -0.585666,-0.813042 z"
         id="path3576"
         inkscape:connector-curvature="0" />
      <path
         d="M 76.701605,45.137642 H 75.96091 l -0.289388,1.10243 h 0.530544 v 0.623562 h -0.695909 l -0.413411,1.477946 h -0.671794 l 0.406521,-1.477946 H 74.035101 L 73.62858,48.34158 h -0.671794 l 0.406522,-1.477946 h -0.482314 v -0.623562 h 0.651123 l 0.285943,-1.10243 h -0.54088 v -0.623563 h 0.706245 l 0.37207,-1.364257 h 0.664904 l -0.361735,1.364257 h 0.788926 l 0.372071,-1.364257 h 0.664903 l -0.35829,1.364257 h 0.575331 z m -1.395264,0 h -0.816487 l -0.289388,1.10243 h 0.809597 z"
         id="path3578"
         inkscape:connector-curvature="0" />
      <path
         d="m 77.325166,48.272678 v -0.261827 l 1.598524,-2.353 q 0.478869,-0.706245 0.478869,-1.188558 0,-0.571886 -0.685574,-0.571886 -0.523655,0 -0.844049,0.554661 l -0.602891,-0.475424 q 0.179145,-0.361735 0.56155,-0.599446 0.385851,-0.241157 0.850939,-0.241157 0.775146,0 1.212673,0.354845 0.437527,0.3514 0.437527,0.978407 0,0.575331 -0.56155,1.43316 l -1.033529,1.574408 h 1.894803 v 0.795817 z"
         id="path3580"
         inkscape:connector-curvature="0" />
      <path
         d="m 20.71536,57.092123 v -5.047065 h 0.895725 v 5.047065 z"
         id="path3582"
         inkscape:connector-curvature="0" />
      <path
         d="m 22.747967,54.09489 h -0.427192 v -0.692465 h 0.427192 v -0.75103 l 0.861273,-0.316949 v 1.067979 h 1.012859 V 54.09489 H 23.60924 v 1.615749 q 0,0.396186 0.124024,0.561551 0.124023,0.161919 0.434082,0.161919 0.310059,0 0.578776,-0.168809 v 0.792372 q -0.299723,0.103352 -0.854384,0.103352 -0.551215,0 -0.847493,-0.310058 -0.296278,-0.313504 -0.296278,-0.888835 z"
         id="path3584"
         inkscape:connector-curvature="0" />
      <path
         d="m 28.211888,51.972711 q 0.206706,0 0.3514,0.148139 0.148139,0.144694 0.148139,0.3514 0,0.206705 -0.148139,0.354844 -0.144694,0.144694 -0.3514,0.144694 -0.206706,0 -0.354845,-0.144694 -0.144694,-0.148139 -0.144694,-0.354844 0,-0.206706 0.144694,-0.3514 0.148139,-0.148139 0.354845,-0.148139 z M 27.76747,57.092123 V 54.10867 h -0.471978 v -0.706245 h 1.343588 v 3.689698 z"
         id="path3586"
         inkscape:connector-curvature="0" />
      <path
         d="m 29.417672,56.854411 0.306613,-0.685574 q 0.385851,0.306613 0.871609,0.306613 0.502984,0 0.502984,-0.358289 0,-0.210151 -0.151584,-0.34451 -0.151584,-0.134359 -0.589111,-0.316949 -0.954292,-0.396186 -0.954292,-1.10932 0,-0.478869 0.36518,-0.744141 0.365181,-0.268718 0.933621,-0.268718 0.575331,0 1.08176,0.258383 l -0.248047,0.668348 q -0.282497,-0.241157 -0.785481,-0.241157 -0.451308,0 -0.451308,0.35829 0,0.141249 0.148139,0.254937 0.148139,0.113689 0.633898,0.306614 0.485758,0.18948 0.699354,0.461643 0.213596,0.272162 0.213596,0.658013 0,0.513319 -0.382406,0.809597 -0.37896,0.292833 -1.033528,0.292833 -0.368625,0 -0.592557,-0.06201 -0.220486,-0.05857 -0.56844,-0.244603 z"
         id="path3588"
         inkscape:connector-curvature="0" />
      <path
         d="m 34.840251,56.668376 0.447863,-0.692464 q 0.399631,0.423746 0.868164,0.423746 0.854383,0 0.854383,-0.802707 0,-0.36518 -0.248046,-0.592556 -0.248047,-0.230822 -0.668349,-0.230822 h -0.158474 v -0.73725 h 0.134358 q 0.771702,0 0.771702,-0.644233 0,-0.675239 -0.720025,-0.675239 -0.37207,0 -0.72347,0.3514 l -0.420302,-0.616672 q 0.16192,-0.199815 0.506429,-0.347955 0.34451,-0.148139 0.689019,-0.148139 0.754476,0 1.174778,0.34451 0.423747,0.344509 0.423747,0.964627 0,0.73725 -0.633898,1.123101 0.802707,0.38585 0.802707,1.260905 0,0.720025 -0.478868,1.11621 -0.475423,0.396186 -1.316026,0.396186 -0.764812,0 -1.305692,-0.492648 z"
         id="path3590"
         inkscape:connector-curvature="0" />
      <path
         d="m 41.099989,51.94515 0.475424,0.502984 q -0.51332,0.268717 -0.933621,0.706245 -0.420302,0.437527 -0.578776,0.864718 0.35829,-0.161919 0.620117,-0.161919 0.713135,0 1.143772,0.444417 0.434082,0.440973 0.434082,1.195448 0,0.744141 -0.444418,1.205784 -0.440972,0.458197 -1.116211,0.458197 -1.763888,0 -1.763888,-2.201415 0,-0.923286 0.678683,-1.867242 0.682129,-0.947401 1.484836,-1.147217 z m -1.233344,3.534668 q 0,0.91984 0.782037,0.91984 0.320394,0 0.509874,-0.227376 0.18948,-0.230821 0.18948,-0.640788 0,-0.420301 -0.199815,-0.664903 -0.196371,-0.248047 -0.509874,-0.248047 -0.771702,0 -0.771702,0.861274 z"
         id="path3592"
         inkscape:connector-curvature="0" />
      <path
         d="m 42.874214,54.415283 q 0,-1.033528 0.502984,-1.746663 0.506429,-0.713135 1.350478,-0.713135 1.760443,0 1.760443,2.570041 0,1.202339 -0.475423,1.918919 -0.475423,0.716579 -1.333252,0.716579 -0.923285,0 -1.364257,-0.661458 -0.440973,-0.661458 -0.440973,-2.084283 z m 0.930176,0.06201 q 0,1.009413 0.196371,1.484836 0.19637,0.475423 0.651123,0.475423 0.492648,0 0.699354,-0.427191 0.206706,-0.430637 0.206706,-1.529623 0,-1.023193 -0.199816,-1.412489 -0.19637,-0.389296 -0.647678,-0.389296 -0.90606,0 -0.90606,1.79834 z"
         id="path3594"
         inkscape:connector-curvature="0" />
      <path
         d="m 48.007405,56.999105 v 1.539958 h -0.861274 v -5.136638 h 0.861274 v 0.248047 q 0.323839,-0.316949 0.795817,-0.316949 1.763889,0 1.763889,1.943034 0,0.90606 -0.489203,1.395264 -0.485759,0.489203 -1.329807,0.489203 -0.406521,0 -0.740696,-0.161919 z m 0,-2.694065 v 1.939589 q 0.234267,0.18948 0.54777,0.18948 0.596002,0 0.854384,-0.282497 0.261827,-0.285943 0.261827,-0.89917 0,-0.654569 -0.258382,-0.919841 -0.258382,-0.268717 -0.854383,-0.268717 -0.310059,0 -0.551216,0.241156 z"
         id="path3596"
         inkscape:connector-curvature="0" />
      <path
         d="m 53.691813,57.092123 -0.947401,-1.202339 -0.850939,1.202339 h -1.019748 l 1.415934,-1.887913 -1.302246,-1.801785 h 0.988743 l 0.778591,1.126547 0.868164,-1.126547 h 0.981852 l -1.415934,1.801785 1.546848,1.887913 z"
         id="path3598"
         inkscape:connector-curvature="0" />
      <path
         d="M 60.967854,57.161024 H 60.65435 l -1.012858,-2.266872 -1.009413,2.266872 H 58.31513 l -1.391818,-3.758599 h 0.90606 l 0.740695,2.201416 0.902615,-2.201416 h 0.310059 l 0.933621,2.215197 0.799262,-2.215197 h 0.847493 z"
         id="path3600"
         inkscape:connector-curvature="0" />
      <path
         d="m 63.544784,51.972711 q 0.206706,0 0.3514,0.148139 0.148139,0.144694 0.148139,0.3514 0,0.206705 -0.148139,0.354844 -0.144694,0.144694 -0.3514,0.144694 -0.206705,0 -0.354844,-0.144694 -0.144694,-0.148139 -0.144694,-0.354844 0,-0.206706 0.144694,-0.3514 0.148139,-0.148139 0.354844,-0.148139 z m -0.444417,5.119412 V 54.10867 h -0.471978 v -0.706245 h 1.343587 v 3.689698 z"
         id="path3602"
         inkscape:connector-curvature="0" />
      <path
         d="m 67.351615,57.092123 v -0.223932 q -0.106798,0.117134 -0.361735,0.206706 -0.254937,0.08613 -0.5271,0.08613 -0.771701,0 -1.216118,-0.489203 -0.440973,-0.489204 -0.440973,-1.364258 0,-0.875054 0.506429,-1.422824 0.509875,-0.551216 1.274686,-0.551216 0.420301,0 0.764811,0.172255 v -1.477946 l 0.861274,-0.206705 v 5.270996 z m 0,-2.807753 q -0.275608,-0.220486 -0.575331,-0.220486 -0.516764,0 -0.795817,0.316948 -0.279053,0.313504 -0.279053,0.902615 0,1.150662 1.109321,1.150662 0.124023,0 0.303168,-0.07235 0.18259,-0.07579 0.237712,-0.151584 z"
         id="path3604"
         inkscape:connector-curvature="0" />
      <path
         d="m 72.364229,55.510824 h -2.635498 q 0.02412,0.440972 0.303168,0.685574 0.279053,0.244602 0.751031,0.244602 0.589111,0 0.895725,-0.306614 l 0.334174,0.658013 q -0.454752,0.368625 -1.357367,0.368625 -0.844049,0 -1.336697,-0.492648 -0.489204,-0.496094 -0.489204,-1.381483 0,-0.87161 0.537435,-1.41249 0.54088,-0.54088 1.295356,-0.54088 0.802707,0 1.288465,0.478869 0.485759,0.478868 0.485759,1.219564 0,0.158474 -0.07235,0.478868 z m -2.604492,-0.647678 h 1.81212 q -0.08957,-0.809598 -0.895725,-0.809598 -0.73725,0 -0.916395,0.809598 z"
         id="path3606"
         inkscape:connector-curvature="0" />
      <path
         d="m 73.25651,56.640815 q 0,-0.258382 0.179145,-0.437527 0.18259,-0.18259 0.440972,-0.18259 0.258382,0 0.437527,0.18259 0.18259,0.179145 0.18259,0.437527 0,0.258382 -0.18259,0.440972 -0.179145,0.18259 -0.437527,0.18259 -0.258382,0 -0.440972,-0.18259 -0.179145,-0.18259 -0.179145,-0.440972 z"
         id="path3608"
         inkscape:connector-curvature="0" />
    </g>
    <path
       style="fill:#000000;fill-rule:nonzero;stroke:none;stroke-width:0.26458332px;stroke-linecap:butt;stroke-linejoin:miter;stroke-opacity:1"
       d="m 0,20.17088 c 0,0 0,0.132292 0,0.132292 19.13888,0 76.555518,-0.132292 95.694398,-0.132292 -19.13888,0 -76.555518,-0.132292 -95.694398,-0.132292 0,0 0,0.132292 0,0.132292 z"
       id="path3611"
       inkscape:connector-curvature="0"
       inkscape:path-effect="#path-effect3613"
       inkscape:original-d="M 0,20.17088 H 95.694398" />
  </g>
</svg>
